<svg id="Camada_1" data-name="Camada 1" xmlns="http://www.w3.org/2000/svg" viewBox="0 0 930 370"><defs><style>.cls-1{fill:none;stroke:#000;stroke-miterlimit:10;stroke-width:20px;}.cls-2{isolation:isolate;}.cls-3{fill:#e1ff1b;}.cls-4{fill:#616e9d;}.cls-5{fill:#1a1a1a;}</style></defs><rect class="cls-1" x="116" y="121.28" width="800" height="230"/><g class="cls-2"><rect class="cls-3" x="116" y="121.27" width="800"/><rect class="cls-4" x="116" y="121.27" width="800" height="230"/></g><rect class="cls-1" x="96" y="101.28" width="800" height="230"/><g class="cls-2"><rect class="cls-3" x="96" y="101.27" width="800"/><rect class="cls-4" x="96" y="101.27" width="800" height="230"/></g><rect class="cls-1" x="76" y="81.28" width="800" height="230"/><g class="cls-2"><rect class="cls-3" x="76" y="81.27" width="800"/><rect class="cls-4" x="76" y="81.27" width="800" height="230"/></g><rect class="cls-1" x="56" y="61.28" width="800" height="230"/><g class="cls-2"><rect class="cls-3" x="56" y="61.27" width="800"/><rect class="cls-4" x="56" y="61.27" width="800" height="230"/></g><rect class="cls-1" x="36" y="41.28" width="800" height="230"/><g class="cls-2"><rect class="cls-3" x="36" y="41.27" width="800"/><rect class="cls-4" x="36" y="41.27" width="800" height="230"/></g><rect class="cls-1" x="16" y="21.28" width="800" height="230"/><g class="cls-2"><rect class="cls-3" x="16" y="21.27" width="800"/><rect class="cls-4" x="16" y="21.27" width="800" height="230"/></g><g id="contato"><path class="cls-5" d="M145.46,192.14q-14.67,0-25.14-6a40.75,40.75,0,0,1-16.09-16.82q-5.61-10.77-5.61-25t5.64-25a40.87,40.87,0,0,1,16.12-16.81q10.47-6,25-6,12.85,0,22.43,4.65a35.87,35.87,0,0,1,15,13.13,38.24,38.24,0,0,1,5.71,19.89H160.92q-.85-7.12-4.8-11.17a13.78,13.78,0,0,0-10.29-4,14.69,14.69,0,0,0-9,2.86,18.39,18.39,0,0,0-6,8.46A38.67,38.67,0,0,0,128.68,144a39.18,39.18,0,0,0,2.14,13.85,18.32,18.32,0,0,0,6,8.52,15.76,15.76,0,0,0,16.27,1.11,13.88,13.88,0,0,0,5.22-5.16,20.34,20.34,0,0,0,2.6-8.3h27.59a40.42,40.42,0,0,1-5.71,20A35.55,35.55,0,0,1,168,187.41Q158.5,192.14,145.46,192.14Z"/><path class="cls-5" d="M248.64,192.14q-14.61,0-25.08-6a40.76,40.76,0,0,1-16.12-16.79q-5.64-10.77-5.64-25t5.64-25.08a40.67,40.67,0,0,1,16.12-16.78q10.47-6,25.08-6t25.09,6a40.65,40.65,0,0,1,16.11,16.78q5.66,10.77,5.65,25.08t-5.65,25a40.73,40.73,0,0,1-16.11,16.79Q263.25,192.14,248.64,192.14Zm.18-22.27a13.13,13.13,0,0,0,9-3.26,20.68,20.68,0,0,0,5.64-9.06,41.7,41.7,0,0,0,2-13.4,42.12,42.12,0,0,0-2-13.52,20.68,20.68,0,0,0-5.64-9.06,13.13,13.13,0,0,0-9-3.26,13.67,13.67,0,0,0-9.26,3.26,20.21,20.21,0,0,0-5.74,9.06,42.12,42.12,0,0,0-2,13.52,41.7,41.7,0,0,0,2,13.4,20.21,20.21,0,0,0,5.74,9.06A13.67,13.67,0,0,0,248.82,169.87Z"/><path class="cls-5" d="M341.86,137.51v52.88H312.34V97.67h28.07v17h1a26.18,26.18,0,0,1,10.5-13.37,31.58,31.58,0,0,1,17.69-4.86,32.09,32.09,0,0,1,17,4.38A29.82,29.82,0,0,1,397.85,113a38.91,38.91,0,0,1,4,18.26v59.1H372.29v-53.3q.06-7.72-3.9-12.08c-2.63-2.89-6.29-4.34-10.95-4.34a16.14,16.14,0,0,0-8.18,2,13.58,13.58,0,0,0-5.44,5.76A20.33,20.33,0,0,0,341.86,137.51Z"/><path class="cls-5" d="M474.2,97.67V119.4H415.7V97.67ZM428,75.45h29.52v85.79a9.4,9.4,0,0,0,.87,4.37,5,5,0,0,0,2.57,2.36,10.63,10.63,0,0,0,4,.69,20.93,20.93,0,0,0,3.59-.33c1.27-.22,2.23-.41,2.87-.58l4.47,21.32q-2.11.6-5.95,1.5a49.45,49.45,0,0,1-9.14,1.15q-10.38.48-17.78-2.44a22.75,22.75,0,0,1-11.29-9.15q-3.9-6.21-3.77-15.63Z"/><path class="cls-5" d="M517.13,192a39.06,39.06,0,0,1-15.73-3,24.15,24.15,0,0,1-10.8-9.06q-4-6.07-4-15.24a28.4,28.4,0,0,1,2.72-13,23.3,23.3,0,0,1,7.49-8.64,35.8,35.8,0,0,1,11-5,73.67,73.67,0,0,1,13.28-2.32q7.92-.72,12.74-1.54a17.79,17.79,0,0,0,7-2.36,5,5,0,0,0,2.2-4.37v-.3a8.66,8.66,0,0,0-3.2-7.19q-3.2-2.53-8.63-2.53-5.87,0-9.42,2.53a11.15,11.15,0,0,0-4.53,7l-27.23-1a32.27,32.27,0,0,1,6.25-15.12,33.79,33.79,0,0,1,13.89-10.51q8.84-3.83,21.28-3.83a60.86,60.86,0,0,1,16.36,2.08,41.44,41.44,0,0,1,13,6,26.83,26.83,0,0,1,11.65,22.79v63H544.78V177.47h-.73a26.55,26.55,0,0,1-6.3,8,25.47,25.47,0,0,1-9,4.89A38.38,38.38,0,0,1,517.13,192Zm9.12-19.31a18.85,18.85,0,0,0,8.6-1.94,15.82,15.82,0,0,0,6.13-5.34,14,14,0,0,0,2.29-7.94v-8.81a18.8,18.8,0,0,1-3,1.21c-1.19.36-2.48.7-3.89,1s-2.86.61-4.35.85-2.92.46-4.29.66a26.37,26.37,0,0,0-7.09,2,11.17,11.17,0,0,0-4.47,3.6,8.93,8.93,0,0,0-1.54,5.22,8.15,8.15,0,0,0,3.29,7A13.81,13.81,0,0,0,526.25,172.65Z"/><path class="cls-5" d="M644.58,97.67V119.4h-58.5V97.67ZM598.33,75.45h29.53v85.79a9.4,9.4,0,0,0,.87,4.37A5,5,0,0,0,631.3,168a10.63,10.63,0,0,0,4,.69,20.93,20.93,0,0,0,3.59-.33c1.27-.22,2.23-.41,2.87-.58l4.47,21.32q-2.12.6-5.95,1.5a49.56,49.56,0,0,1-9.14,1.15q-10.39.48-17.78-2.44a22.71,22.71,0,0,1-11.29-9.15q-3.9-6.21-3.78-15.63Z"/><path class="cls-5" d="M703.69,192.14q-14.61,0-25.09-6a40.73,40.73,0,0,1-16.11-16.79q-5.65-10.77-5.65-25t5.65-25.08a40.65,40.65,0,0,1,16.11-16.78q10.49-6,25.09-6t25.08,6a40.67,40.67,0,0,1,16.12,16.78q5.64,10.77,5.64,25.08t-5.64,25a40.76,40.76,0,0,1-16.12,16.79Q718.3,192.14,703.69,192.14Zm.18-22.27a13.09,13.09,0,0,0,9-3.26,20.61,20.61,0,0,0,5.65-9.06,41.7,41.7,0,0,0,2-13.4,42.12,42.12,0,0,0-2-13.52,20.61,20.61,0,0,0-5.65-9.06,13.09,13.09,0,0,0-9-3.26,13.72,13.72,0,0,0-9.27,3.26,20.19,20.19,0,0,0-5.73,9.06,42.12,42.12,0,0,0-2,13.52,41.7,41.7,0,0,0,2,13.4,20.19,20.19,0,0,0,5.73,9.06A13.72,13.72,0,0,0,703.87,169.87Z"/></g></svg>