<svg id="Camada_1" data-name="Camada 1" xmlns="http://www.w3.org/2000/svg" viewBox="0 0 1573.75 630.97"><defs><style>.cls-1{fill:none;stroke:#000;stroke-miterlimit:10;stroke-width:20px;}.cls-2{isolation:isolate;}.cls-3{fill:#e1ff1b;}.cls-4{fill:#f26e9d;}.cls-5{fill:#61b231;}.cls-6{fill:#1a1a1a;}</style></defs><rect class="cls-1" x="135.61" y="324" width="1422" height="189"/><g class="cls-2"><rect class="cls-3" x="135.61" y="324" width="1422"/><rect class="cls-4" x="135.61" y="324" width="1422" height="189"/></g><rect class="cls-1" x="112.61" y="344" width="1422" height="189"/><g class="cls-2"><rect class="cls-3" x="112.61" y="344" width="1422"/><rect class="cls-4" x="112.61" y="344" width="1422" height="189"/></g><rect class="cls-1" x="89.61" y="364" width="1422" height="189"/><g class="cls-2"><rect class="cls-3" x="89.61" y="364" width="1422"/><rect class="cls-4" x="89.61" y="364" width="1422" height="189"/></g><rect class="cls-1" x="66.61" y="384" width="1422" height="189"/><g class="cls-2"><rect class="cls-3" x="66.61" y="384" width="1422"/><rect class="cls-4" x="66.61" y="384" width="1422" height="189"/></g><rect class="cls-1" x="43.61" y="404" width="1422" height="189"/><g class="cls-2"><rect class="cls-3" x="43.61" y="404" width="1422"/><rect class="cls-4" x="43.61" y="404" width="1422" height="189"/></g><rect class="cls-1" x="20.61" y="424" width="1422" height="189"/><g class="cls-2"><rect class="cls-3" x="20.61" y="424" width="1422"/><rect class="cls-4" x="20.61" y="424" width="1422" height="189"/></g><rect class="cls-1" x="483.61" y="129" width="594" height="171"/><g class="cls-2"><rect class="cls-3" x="483.61" y="129" width="594"/><rect class="cls-5" x="483.61" y="129" width="594" height="171"/></g><rect class="cls-1" x="503.61" y="107" width="594" height="171"/><g class="cls-2"><rect class="cls-3" x="503.61" y="107" width="594"/><rect class="cls-5" x="503.61" y="107" width="594" height="171"/></g><rect class="cls-1" x="523.61" y="85" width="594" height="171"/><g class="cls-2"><rect class="cls-3" x="523.61" y="85" width="594"/><rect class="cls-5" x="523.61" y="85" width="594" height="171"/></g><rect class="cls-1" x="543.61" y="63" width="594" height="171"/><g class="cls-2"><rect class="cls-3" x="543.61" y="63" width="594"/><rect class="cls-5" x="543.61" y="63" width="594" height="171"/></g><rect class="cls-1" x="563.61" y="41" width="594" height="171"/><g class="cls-2"><rect class="cls-3" x="563.61" y="41" width="594"/><rect class="cls-5" x="563.61" y="41" width="594" height="171"/></g><rect class="cls-1" x="583.61" y="19" width="594" height="171"/><g class="cls-2"><rect class="cls-3" x="583.61" y="19" width="594"/><rect class="cls-5" x="583.61" y="19" width="594" height="171"/></g><path class="cls-6" d="M713.1,144.58H679.16V52.77h33.89q14,0,24.19,5.49A37.82,37.82,0,0,1,752.9,74q5.52,10.29,5.52,24.59t-5.49,24.65a37.66,37.66,0,0,1-15.67,15.8Q727.09,144.58,713.1,144.58Zm-11.75-18.92h10.9A29.6,29.6,0,0,0,725.31,123a17.22,17.22,0,0,0,8.12-8.56q2.75-5.94,2.75-15.85t-2.78-15.8a17.29,17.29,0,0,0-8.18-8.52,30.24,30.24,0,0,0-13.29-2.62H701.35Z"/><path class="cls-6" d="M792,145.74a28.94,28.94,0,0,1-11.68-2.22,17.85,17.85,0,0,1-8-6.72,20.33,20.33,0,0,1-2.94-11.32,21,21,0,0,1,2-9.68,17.18,17.18,0,0,1,5.56-6.41,26.62,26.62,0,0,1,8.15-3.75,54.58,54.58,0,0,1,9.87-1.72q5.87-.54,9.45-1.14a13.39,13.39,0,0,0,5.23-1.75,3.73,3.73,0,0,0,1.63-3.25v-.23a6.41,6.41,0,0,0-2.37-5.33,10,10,0,0,0-6.41-1.88,11.81,11.81,0,0,0-7,1.88,8.3,8.3,0,0,0-3.36,5.2l-20.21-.72a23.81,23.81,0,0,1,4.64-11.23,25.07,25.07,0,0,1,10.31-7.8,39.52,39.52,0,0,1,15.8-2.84,45.18,45.18,0,0,1,12.14,1.54,30.88,30.88,0,0,1,9.69,4.48,20,20,0,0,1,8.65,16.93v46.8H812.53V135H812a19.71,19.71,0,0,1-4.68,5.92,19.2,19.2,0,0,1-6.68,3.63A28.52,28.52,0,0,1,792,145.74Zm6.77-14.34a13.9,13.9,0,0,0,6.38-1.44,11.68,11.68,0,0,0,4.55-4,10.31,10.31,0,0,0,1.71-5.9v-6.54a13.44,13.44,0,0,1-2.27.89c-.88.27-1.84.53-2.89.76s-2.12.45-3.23.63-2.16.35-3.18.49a19.29,19.29,0,0,0-5.26,1.53,8.25,8.25,0,0,0-3.32,2.67,6.59,6.59,0,0,0-1.14,3.87,6,6,0,0,0,2.44,5.2A10.2,10.2,0,0,0,798.77,131.4Z"/><path class="cls-6" d="M869.69,105.31v39.27H847.77V75.72h20.84V88.36h.76a19.54,19.54,0,0,1,7.8-9.93,23.52,23.52,0,0,1,13.14-3.6,23.85,23.85,0,0,1,12.62,3.25,22.1,22.1,0,0,1,8.33,9,28.89,28.89,0,0,1,2.94,13.56v43.89H892.28V105q0-5.73-2.89-9a10.46,10.46,0,0,0-8.14-3.23,12,12,0,0,0-6.07,1.5,10.13,10.13,0,0,0-4,4.28A15.16,15.16,0,0,0,869.69,105.31Z"/><path class="cls-6" d="M940.12,67.7a11.31,11.31,0,0,1-8-3.07,9.9,9.9,0,0,1,0-14.79,11.79,11.79,0,0,1,15.89,0,10,10,0,0,1,0,14.79A11.2,11.2,0,0,1,940.12,67.7Zm-11,76.88V75.72H951v68.86Z"/><path class="cls-6" d="M988.09,52.77v91.81H966.17V52.77Z"/><path class="cls-6" d="M1035.38,145.88q-10.85,0-18.62-4.46a30.22,30.22,0,0,1-12-12.47,39.37,39.37,0,0,1-4.19-18.58,39.48,39.48,0,0,1,4.19-18.62,30.14,30.14,0,0,1,12-12.46q7.77-4.47,18.62-4.46T1054,79.29a30.26,30.26,0,0,1,12,12.46,39.6,39.6,0,0,1,4.19,18.62A39.49,39.49,0,0,1,1066,129a30.35,30.35,0,0,1-12,12.47Q1046.22,145.88,1035.38,145.88Zm.14-16.55a9.7,9.7,0,0,0,6.68-2.42,15.27,15.27,0,0,0,4.19-6.72,31.08,31.08,0,0,0,1.45-10,31.36,31.36,0,0,0-1.45-10,15.37,15.37,0,0,0-4.19-6.73,9.75,9.75,0,0,0-6.68-2.42,10.16,10.16,0,0,0-6.88,2.42,15,15,0,0,0-4.26,6.73,34.94,34.94,0,0,0,0,20,14.93,14.93,0,0,0,4.26,6.72A10.11,10.11,0,0,0,1035.52,129.33Z"/><path class="cls-6" d="M1105.05,132l-.4,5a66.92,66.92,0,0,1-2.18,12.08q-1.63,5.89-3.47,10.6t-2.92,7.31h-13.8c.48-1.73,1.12-4.17,2-7.31s1.59-6.68,2.31-10.62a77.47,77.47,0,0,0,1.21-12l.09-5Z"/><path d="M62.92,523.63V499.17H76.59v43H63.54v-8h-.45a12.41,12.41,0,0,1-4.86,6.26A14.47,14.47,0,0,1,50,542.75a14.64,14.64,0,0,1-7.72-2A13.77,13.77,0,0,1,37,535.09a18.75,18.75,0,0,1-1.87-8.5V499.17H48.86v24.74a8,8,0,0,0,1.85,5.51,6.33,6.33,0,0,0,5,2,7.41,7.41,0,0,0,3.68-.91A6.68,6.68,0,0,0,62,527.87,8.71,8.71,0,0,0,62.92,523.63Z"/><path d="M86.09,542.19v-43h13v7.9h.48a12.25,12.25,0,0,1,4.54-6.19,13.93,13.93,0,0,1,15.29,0,10.07,10.07,0,0,1,4.06,6.16h.45a11.2,11.2,0,0,1,4.7-6.14,14.6,14.6,0,0,1,8.26-2.32,13.26,13.26,0,0,1,9.92,3.91q3.81,3.92,3.81,10.71v29h-13.7V516.37a6.75,6.75,0,0,0-1.65-4.91,5.72,5.72,0,0,0-4.29-1.7,5.56,5.56,0,0,0-4.43,1.84,7.14,7.14,0,0,0-1.61,4.91v25.68H111.77v-26a6.66,6.66,0,0,0-1.62-4.73,5.6,5.6,0,0,0-4.29-1.74,5.85,5.85,0,0,0-3.16.86,5.77,5.77,0,0,0-2.15,2.42,8.34,8.34,0,0,0-.77,3.7v25.45Z"/><path d="M202.13,499.17v10.09H174.46V499.17Zm-21.9,43V497a16.47,16.47,0,0,1,1.88-8.28,12,12,0,0,1,5.2-4.93,17.32,17.32,0,0,1,7.71-1.63,31.91,31.91,0,0,1,5.39.43c1.69.29,2.94.55,3.77.77l-2.19,10a11.1,11.1,0,0,0-1.83-.42,13.55,13.55,0,0,0-2-.17c-1.61,0-2.71.35-3.31,1.06a4.38,4.38,0,0,0-.9,2.92v45.42Z"/><path d="M237.28,523.63V499.17H251v43h-13v-8h-.45a12.41,12.41,0,0,1-4.86,6.26,14.43,14.43,0,0,1-8.27,2.31,14.67,14.67,0,0,1-7.73-2,13.68,13.68,0,0,1-5.18-5.65,18.62,18.62,0,0,1-1.88-8.5V499.17h13.7v24.74a8,8,0,0,0,1.84,5.51,6.34,6.34,0,0,0,5,2,7.41,7.41,0,0,0,3.68-.91,6.62,6.62,0,0,0,2.61-2.66A8.71,8.71,0,0,0,237.28,523.63Z"/><path d="M284.73,499.17v10.09H257.59V499.17Zm-21.45-10.3H277v39.8a4.38,4.38,0,0,0,.41,2,2.34,2.34,0,0,0,1.19,1.09,5,5,0,0,0,1.88.32,9.84,9.84,0,0,0,1.66-.15c.59-.11,1-.19,1.33-.27l2.08,9.89c-.66.18-1.58.42-2.76.7a23,23,0,0,1-4.24.53,19.91,19.91,0,0,1-8.25-1.13,10.53,10.53,0,0,1-5.24-4.25,13,13,0,0,1-1.75-7.25Z"/><path d="M320.28,523.63V499.17h13.66v43H320.89v-8h-.44a12.51,12.51,0,0,1-4.86,6.26,14.49,14.49,0,0,1-8.28,2.31,14.67,14.67,0,0,1-7.73-2,13.75,13.75,0,0,1-5.18-5.65,18.75,18.75,0,0,1-1.88-8.5V499.17h13.7v24.74a8,8,0,0,0,1.85,5.51,6.31,6.31,0,0,0,4.95,2,7.45,7.45,0,0,0,3.69-.91,6.6,6.6,0,0,0,2.6-2.66A8.6,8.6,0,0,0,320.28,523.63Z"/><path d="M343.44,542.19v-43h13.31V507h.45a11.72,11.72,0,0,1,3.83-6.35,9.76,9.76,0,0,1,6.19-2.08,16.49,16.49,0,0,1,2,.12,12.75,12.75,0,0,1,1.88.38V511a13.34,13.34,0,0,0-2.56-.53,23.37,23.37,0,0,0-2.82-.19,9,9,0,0,0-4.38,1.07,7.79,7.79,0,0,0-3.05,3,8.83,8.83,0,0,0-1.11,4.5v23.35Z"/><path d="M395.29,543a23,23,0,0,1-11.64-2.79,18.82,18.82,0,0,1-7.47-7.79,27.08,27.08,0,0,1,0-23.24,18.82,18.82,0,0,1,7.47-7.79,25.68,25.68,0,0,1,23.28,0,18.82,18.82,0,0,1,7.47,7.79,27.08,27.08,0,0,1,0,23.24,18.82,18.82,0,0,1-7.47,7.79A23,23,0,0,1,395.29,543Zm.08-10.34a6.07,6.07,0,0,0,4.18-1.51,9.6,9.6,0,0,0,2.62-4.2,21.88,21.88,0,0,0,0-12.49,9.49,9.49,0,0,0-2.62-4.2,6.08,6.08,0,0,0-4.18-1.52,6.35,6.35,0,0,0-4.3,1.52,9.37,9.37,0,0,0-2.66,4.2,21.88,21.88,0,0,0,0,12.49,9.48,9.48,0,0,0,2.66,4.2A6.34,6.34,0,0,0,395.37,532.67Z"/><path d="M458.31,542.81a15.88,15.88,0,0,1-8.65-2.46,17.07,17.07,0,0,1-6.22-7.4,28.59,28.59,0,0,1-2.32-12.24q0-7.59,2.41-12.49a16.78,16.78,0,0,1,6.31-7.25,16,16,0,0,1,8.42-2.36,13.19,13.19,0,0,1,5.8,1.17,12.06,12.06,0,0,1,4,3,13.79,13.79,0,0,1,2.38,3.78h.28V484.83h13.7v57.36H470.83v-7h-.42a13.36,13.36,0,0,1-2.46,3.72,12,12,0,0,1-4,2.81A13.83,13.83,0,0,1,458.31,542.81Zm4.77-10.67a6.58,6.58,0,0,0,4.25-1.41,9,9,0,0,0,2.72-4,19.9,19.9,0,0,0,0-12.12,8.47,8.47,0,0,0-2.71-3.92,7.33,7.33,0,0,0-8.59,0,8.59,8.59,0,0,0-2.67,3.95,20.36,20.36,0,0,0,0,12.07,8.87,8.87,0,0,0,2.68,4A6.62,6.62,0,0,0,463.08,532.14Z"/><path d="M514,543a24,24,0,0,1-11.64-2.68,18.12,18.12,0,0,1-7.5-7.64,25,25,0,0,1-2.62-11.84,24.61,24.61,0,0,1,2.63-11.66,19.08,19.08,0,0,1,7.42-7.79,22,22,0,0,1,11.29-2.79A23.81,23.81,0,0,1,522,500a18.26,18.26,0,0,1,6.58,4.23,19.34,19.34,0,0,1,4.32,6.91,26.72,26.72,0,0,1,1.54,9.39V524H497v-8h24.64a7.77,7.77,0,0,0-1-3.9,7.22,7.22,0,0,0-2.76-2.67,8.14,8.14,0,0,0-4-1,8.31,8.31,0,0,0-4.12,1,7.84,7.84,0,0,0-2.88,2.78,7.75,7.75,0,0,0-1.12,4v8.09a9.79,9.79,0,0,0,1,4.61,7.44,7.44,0,0,0,2.94,3.07,9,9,0,0,0,4.54,1.09,10.35,10.35,0,0,0,3.3-.5,7.1,7.1,0,0,0,2.55-1.49,6.07,6.07,0,0,0,1.6-2.41l12.58.37a15.55,15.55,0,0,1-3.44,7.35,17.25,17.25,0,0,1-6.93,4.84A26.37,26.37,0,0,1,514,543Z"/><path d="M579.76,512.31l-12.57.34a4.77,4.77,0,0,0-1.07-2.4,5.94,5.94,0,0,0-2.25-1.65,9,9,0,0,0-7.26.35,2.8,2.8,0,0,0-1.63,2.58,2.73,2.73,0,0,0,1,2.18,8.38,8.38,0,0,0,3.77,1.48l8.29,1.57q6.44,1.23,9.59,4.09a9.82,9.82,0,0,1,3.18,7.56,12.21,12.21,0,0,1-2.62,7.71,16.83,16.83,0,0,1-7.07,5.08A27.36,27.36,0,0,1,560.89,543q-9.23,0-14.53-3.8A14.07,14.07,0,0,1,540.3,529l13.53-.34a5.28,5.28,0,0,0,2.32,3.59,8.58,8.58,0,0,0,4.79,1.23,8.28,8.28,0,0,0,4.29-1,3,3,0,0,0,1.68-2.6,2.81,2.81,0,0,0-1.29-2.34,10.49,10.49,0,0,0-4-1.39l-7.51-1.43q-6.46-1.17-9.63-4.35a10.91,10.91,0,0,1-3.14-8.11,11.73,11.73,0,0,1,2.3-7.38,14.47,14.47,0,0,1,6.61-4.69,28.58,28.58,0,0,1,10.11-1.63q8.73,0,13.78,3.66A13.16,13.16,0,0,1,579.76,512.31Z"/><path d="M608.45,543a24,24,0,0,1-11.64-2.68,18.2,18.2,0,0,1-7.51-7.64,25.17,25.17,0,0,1-2.62-11.84,24.61,24.61,0,0,1,2.64-11.66,19.08,19.08,0,0,1,7.42-7.79A22,22,0,0,1,608,498.61a23.81,23.81,0,0,1,8.4,1.43,18.26,18.26,0,0,1,6.58,4.23,19.19,19.19,0,0,1,4.31,6.91,26.49,26.49,0,0,1,1.54,9.39V524H591.47v-8h24.65a7.67,7.67,0,0,0-1-3.9,7.09,7.09,0,0,0-2.76-2.67,8.07,8.07,0,0,0-4-1,8.25,8.25,0,0,0-4.12,1,7.77,7.77,0,0,0-4,6.74v8.09a9.8,9.8,0,0,0,1,4.61,7.44,7.44,0,0,0,2.94,3.07,9,9,0,0,0,4.54,1.09,10.39,10.39,0,0,0,3.3-.5,7.18,7.18,0,0,0,2.55-1.49,6.18,6.18,0,0,0,1.6-2.41l12.57.37a15.44,15.44,0,0,1-3.43,7.35,17.25,17.25,0,0,1-6.93,4.84A26.41,26.41,0,0,1,608.45,543Z"/><path d="M650.38,517.66v24.53h-13.7v-43h13v7.9h.48a12.16,12.16,0,0,1,4.87-6.2,16.14,16.14,0,0,1,16.09-.22,13.75,13.75,0,0,1,5.21,5.65,18,18,0,0,1,1.84,8.47v27.42h-13.7V517.46a7.93,7.93,0,0,0-1.8-5.6,6.55,6.55,0,0,0-5.09-2,7.52,7.52,0,0,0-3.79.93,6.34,6.34,0,0,0-2.52,2.68A9.3,9.3,0,0,0,650.38,517.66Z"/><path d="M727.65,499.17l-14.76,43H697.21l-14.73-43H696.9l7.93,29.64h.45l8-29.64Z"/><path d="M752.36,543a23,23,0,0,1-11.64-2.79,18.82,18.82,0,0,1-7.47-7.79,27.08,27.08,0,0,1,0-23.24,18.82,18.82,0,0,1,7.47-7.79,25.68,25.68,0,0,1,23.28,0,18.91,18.91,0,0,1,7.48,7.79,27.08,27.08,0,0,1,0,23.24,18.91,18.91,0,0,1-7.48,7.79A23,23,0,0,1,752.36,543Zm.09-10.34a6.06,6.06,0,0,0,4.17-1.51,9.6,9.6,0,0,0,2.62-4.2,21.88,21.88,0,0,0,0-12.49,9.49,9.49,0,0,0-2.62-4.2,6.07,6.07,0,0,0-4.17-1.52,6.33,6.33,0,0,0-4.3,1.52,9.2,9.2,0,0,0-2.66,4.2,21.88,21.88,0,0,0,0,12.49,9.31,9.31,0,0,0,2.66,4.2A6.32,6.32,0,0,0,752.45,532.67Z"/><path d="M795.61,484.83v57.36h-13.7V484.83Z"/><path d="M846.81,499.17l-14.76,43H816.36l-14.73-43h14.43L824,528.81h.45l8-29.64Z"/><path d="M871.54,543a23.88,23.88,0,0,1-11.63-2.68,18.2,18.2,0,0,1-7.51-7.64,25,25,0,0,1-2.62-11.84,24.73,24.73,0,0,1,2.63-11.66,19.11,19.11,0,0,1,7.43-7.79,22,22,0,0,1,11.28-2.79,23.83,23.83,0,0,1,8.41,1.43,18.34,18.34,0,0,1,6.58,4.23,19.32,19.32,0,0,1,4.31,6.91,26.49,26.49,0,0,1,1.54,9.39V524H854.57v-8h24.65a7.77,7.77,0,0,0-1-3.9,7.09,7.09,0,0,0-2.76-2.67,8.08,8.08,0,0,0-4-1,8.24,8.24,0,0,0-4.11,1,7.77,7.77,0,0,0-4,6.74v8.09a9.8,9.8,0,0,0,1,4.61,7.44,7.44,0,0,0,2.94,3.07,9,9,0,0,0,4.54,1.09,10.39,10.39,0,0,0,3.3-.5,7.18,7.18,0,0,0,2.55-1.49,6.18,6.18,0,0,0,1.6-2.41l12.57.37a15.53,15.53,0,0,1-3.43,7.35,17.32,17.32,0,0,1-6.93,4.84A26.43,26.43,0,0,1,871.54,543Z"/><path d="M915.49,542.81a15.85,15.85,0,0,1-8.65-2.46,17.07,17.07,0,0,1-6.22-7.4,33.44,33.44,0,0,1,.08-24.73A16.79,16.79,0,0,1,907,501a16,16,0,0,1,8.42-2.36,13.14,13.14,0,0,1,5.79,1.17,12.1,12.1,0,0,1,4,3,13.79,13.79,0,0,1,2.38,3.78h.28V484.83h13.7v57.36H928v-7h-.42a13.36,13.36,0,0,1-2.46,3.72,12,12,0,0,1-4,2.81A13.75,13.75,0,0,1,915.49,542.81Zm4.76-10.67a6.63,6.63,0,0,0,4.26-1.41,9,9,0,0,0,2.72-4,19.9,19.9,0,0,0,0-12.12,8.48,8.48,0,0,0-2.72-3.92,7.32,7.32,0,0,0-8.58,0,8.6,8.6,0,0,0-2.68,3.95,18.11,18.11,0,0,0-.91,6,17.77,17.77,0,0,0,.93,6.05,8.86,8.86,0,0,0,2.67,4A6.64,6.64,0,0,0,920.25,532.14Z"/><path d="M971.12,543a23,23,0,0,1-11.64-2.79,18.91,18.91,0,0,1-7.48-7.79,27.08,27.08,0,0,1,0-23.24,18.91,18.91,0,0,1,7.48-7.79,25.68,25.68,0,0,1,23.28,0,18.89,18.89,0,0,1,7.47,7.79,27.08,27.08,0,0,1,0,23.24,18.89,18.89,0,0,1-7.47,7.79A23,23,0,0,1,971.12,543Zm.08-10.34a6.07,6.07,0,0,0,4.18-1.51A9.59,9.59,0,0,0,978,527a21.88,21.88,0,0,0,0-12.49,9.47,9.47,0,0,0-2.61-4.2,6.08,6.08,0,0,0-4.18-1.52,6.35,6.35,0,0,0-4.3,1.52,9.37,9.37,0,0,0-2.66,4.2,21.88,21.88,0,0,0,0,12.49,9.48,9.48,0,0,0,2.66,4.2A6.34,6.34,0,0,0,971.2,532.67Z"/><path d="M1000.67,542.19v-43H1014V507h.45a11.73,11.73,0,0,1,3.84-6.35,9.74,9.74,0,0,1,6.19-2.08,16.61,16.61,0,0,1,2,.12,12.35,12.35,0,0,1,1.87.38V511a13.18,13.18,0,0,0-2.56-.53,23.08,23.08,0,0,0-2.81-.19,9,9,0,0,0-4.39,1.07,7.92,7.92,0,0,0-3,3,8.83,8.83,0,0,0-1.1,4.5v23.35Z"/><path d="M1076.89,499.17v10.09h-27.68V499.17Zm-21.91,43V497a16.57,16.57,0,0,1,1.88-8.28,12,12,0,0,1,5.21-4.93,17.27,17.27,0,0,1,7.7-1.63,31.82,31.82,0,0,1,5.39.43c1.69.29,2.95.55,3.77.77l-2.18,10a11.24,11.24,0,0,0-1.84-.42,13.44,13.44,0,0,0-2-.17c-1.61,0-2.71.35-3.3,1.06a4.38,4.38,0,0,0-.9,2.92v45.42Z"/><path d="M1084.28,542.19v-43h13.31V507h.44a11.79,11.79,0,0,1,3.84-6.35,9.74,9.74,0,0,1,6.19-2.08,16.49,16.49,0,0,1,2,.12,12.75,12.75,0,0,1,1.88.38V511a13.51,13.51,0,0,0-2.56-.53,23.37,23.37,0,0,0-2.82-.19,9,9,0,0,0-4.38,1.07,7.88,7.88,0,0,0-3.06,3,8.93,8.93,0,0,0-1.1,4.5v23.35Z"/><path d="M1136.13,543a23,23,0,0,1-11.64-2.79,18.82,18.82,0,0,1-7.47-7.79,27.08,27.08,0,0,1,0-23.24,18.82,18.82,0,0,1,7.47-7.79,25.68,25.68,0,0,1,23.28,0,18.82,18.82,0,0,1,7.47,7.79,27.08,27.08,0,0,1,0,23.24,18.82,18.82,0,0,1-7.47,7.79A23,23,0,0,1,1136.13,543Zm.08-10.34a6.07,6.07,0,0,0,4.18-1.51A9.6,9.6,0,0,0,1143,527a21.88,21.88,0,0,0,0-12.49,9.49,9.49,0,0,0-2.62-4.2,6.08,6.08,0,0,0-4.18-1.52,6.35,6.35,0,0,0-4.3,1.52,9.37,9.37,0,0,0-2.66,4.2,21.88,21.88,0,0,0,0,12.49,9.48,9.48,0,0,0,2.66,4.2A6.34,6.34,0,0,0,1136.21,532.67Z"/><path d="M1179.38,517.66v24.53h-13.7v-43h13v7.9h.48a12.16,12.16,0,0,1,4.87-6.2,14.68,14.68,0,0,1,8.21-2.26,14.84,14.84,0,0,1,7.88,2,13.82,13.82,0,0,1,5.21,5.65,18.07,18.07,0,0,1,1.84,8.47v27.42h-13.7V517.46a7.93,7.93,0,0,0-1.8-5.6,6.55,6.55,0,0,0-5.09-2,7.52,7.52,0,0,0-3.79.93,6.22,6.22,0,0,0-2.52,2.68A9.3,9.3,0,0,0,1179.38,517.66Z"/><path d="M1240.77,499.17v10.09h-27.14V499.17Zm-21.45-10.3H1233v39.8a4.39,4.39,0,0,0,.4,2,2.34,2.34,0,0,0,1.19,1.09,5,5,0,0,0,1.88.32,9.84,9.84,0,0,0,1.66-.15c.59-.11,1-.19,1.33-.27l2.08,9.89c-.66.18-1.58.42-2.76.7a23,23,0,0,1-4.24.53,19.91,19.91,0,0,1-8.25-1.13,10.53,10.53,0,0,1-5.24-4.25,13.11,13.11,0,0,1-1.75-7.25Z"/><path d="M1274.89,513.71v10.56h-26.55V513.71Z"/><path d="M1305.45,543a24,24,0,0,1-11.64-2.68,18.18,18.18,0,0,1-7.5-7.64,25,25,0,0,1-2.62-11.84,24.73,24.73,0,0,1,2.63-11.66,19.15,19.15,0,0,1,7.42-7.79,22.06,22.06,0,0,1,11.29-2.79,23.81,23.81,0,0,1,8.4,1.43,18.17,18.17,0,0,1,6.58,4.23,19.34,19.34,0,0,1,4.32,6.91,26.72,26.72,0,0,1,1.54,9.39V524h-37.39v-8h24.64a7.66,7.66,0,0,0-1-3.9,7.09,7.09,0,0,0-2.76-2.67,8.14,8.14,0,0,0-4-1,8.31,8.31,0,0,0-4.12,1,7.79,7.79,0,0,0-4,6.74v8.09a9.68,9.68,0,0,0,1,4.61,7.44,7.44,0,0,0,2.94,3.07,8.94,8.94,0,0,0,4.53,1.09,10.41,10.41,0,0,0,3.31-.5,7.18,7.18,0,0,0,2.55-1.49,6.05,6.05,0,0,0,1.59-2.41l12.58.37a15.53,15.53,0,0,1-3.43,7.35,17.39,17.39,0,0,1-6.93,4.84A26.46,26.46,0,0,1,1305.45,543Z"/><path d="M1347.38,517.66v24.53h-13.69v-43h13v7.9h.48a12.1,12.1,0,0,1,4.87-6.2,14.68,14.68,0,0,1,8.21-2.26,14.84,14.84,0,0,1,7.88,2,13.82,13.82,0,0,1,5.21,5.65,18.07,18.07,0,0,1,1.83,8.47v27.42H1361.5V517.46a7.94,7.94,0,0,0-1.81-5.6,6.53,6.53,0,0,0-5.08-2,7.56,7.56,0,0,0-3.8.93,6.34,6.34,0,0,0-2.52,2.68A9.44,9.44,0,0,0,1347.38,517.66Z"/><path d="M1400.21,542.81a15.89,15.89,0,0,1-8.66-2.46,17.12,17.12,0,0,1-6.21-7.4,28.58,28.58,0,0,1-2.33-12.24q0-7.59,2.41-12.49a16.79,16.79,0,0,1,6.32-7.25,16,16,0,0,1,8.41-2.36,13.19,13.19,0,0,1,5.8,1.17,12.1,12.1,0,0,1,4,3,14,14,0,0,1,2.38,3.78h.28V484.83h13.69v57.36h-13.55v-7h-.42a13.18,13.18,0,0,1-2.47,3.72,11.81,11.81,0,0,1-4,2.81A13.78,13.78,0,0,1,1400.21,542.81Zm4.76-10.67a6.63,6.63,0,0,0,4.26-1.41,9,9,0,0,0,2.71-4,17.27,17.27,0,0,0,1-6.05,17.73,17.73,0,0,0-.93-6.07,8.48,8.48,0,0,0-2.72-3.92,7.32,7.32,0,0,0-8.58,0,8.6,8.6,0,0,0-2.68,3.95,20.25,20.25,0,0,0,0,12.07,8.78,8.78,0,0,0,2.67,4A6.64,6.64,0,0,0,1405,532.14Z"/></svg>