<svg id="Camada_1" data-name="Camada 1" xmlns="http://www.w3.org/2000/svg" viewBox="0 0 828.75 804.97"><defs><style>.cls-1{fill:none;stroke:#000;stroke-miterlimit:10;stroke-width:20px;}.cls-2{isolation:isolate;}.cls-3{fill:#e1ff1b;}.cls-4{fill:#f26e9d;}.cls-5{fill:#61b231;}.cls-6{fill:#1a1a1a;}</style></defs><rect class="cls-1" x="224.61" y="324" width="594" height="371"/><g class="cls-2"><rect class="cls-3" x="224.61" y="324" width="594"/><rect class="cls-4" x="224.61" y="324" width="594" height="371"/></g><rect class="cls-1" x="201.61" y="344" width="594" height="371"/><g class="cls-2"><rect class="cls-3" x="201.61" y="344" width="594"/><rect class="cls-4" x="201.61" y="344" width="594" height="371"/></g><rect class="cls-1" x="178.61" y="364" width="594" height="371"/><g class="cls-2"><rect class="cls-3" x="178.61" y="364" width="594"/><rect class="cls-4" x="178.61" y="364" width="594" height="371"/></g><rect class="cls-1" x="155.61" y="384" width="594" height="371"/><g class="cls-2"><rect class="cls-3" x="155.61" y="384" width="594"/><rect class="cls-4" x="155.61" y="384" width="594" height="371"/></g><rect class="cls-1" x="132.61" y="404" width="594" height="371"/><g class="cls-2"><rect class="cls-3" x="132.61" y="404" width="594"/><rect class="cls-4" x="132.61" y="404" width="594" height="371"/></g><rect class="cls-1" x="109.61" y="424" width="594" height="371"/><g class="cls-2"><rect class="cls-3" x="109.61" y="424" width="594"/><rect class="cls-4" x="109.61" y="424" width="594" height="371"/></g><rect class="cls-1" x="9.61" y="120" width="594" height="171"/><g class="cls-2"><rect class="cls-3" x="9.61" y="120" width="594"/><rect class="cls-5" x="9.61" y="120" width="594" height="171"/></g><rect class="cls-1" x="29.61" y="98" width="594" height="171"/><g class="cls-2"><rect class="cls-3" x="29.61" y="98" width="594"/><rect class="cls-5" x="29.61" y="98" width="594" height="171"/></g><rect class="cls-1" x="49.61" y="76" width="594" height="171"/><g class="cls-2"><rect class="cls-3" x="49.61" y="76" width="594"/><rect class="cls-5" x="49.61" y="76" width="594" height="171"/></g><rect class="cls-1" x="69.61" y="54" width="594" height="171"/><g class="cls-2"><rect class="cls-3" x="69.61" y="54" width="594"/><rect class="cls-5" x="69.61" y="54" width="594" height="171"/></g><rect class="cls-1" x="89.61" y="32" width="594" height="171"/><g class="cls-2"><rect class="cls-3" x="89.61" y="32" width="594"/><rect class="cls-5" x="89.61" y="32" width="594" height="171"/></g><rect class="cls-1" x="109.61" y="10" width="594" height="171"/><g class="cls-2"><rect class="cls-3" x="109.61" y="10" width="594"/><rect class="cls-5" x="109.61" y="10" width="594" height="171"/></g><path class="cls-6" d="M265.1,135.58H231.16V43.77h33.89q14,0,24.19,5.49A37.82,37.82,0,0,1,304.9,65q5.52,10.29,5.52,24.59t-5.49,24.65a37.66,37.66,0,0,1-15.67,15.8Q279.09,135.58,265.1,135.58Zm-11.75-18.92h10.9A29.6,29.6,0,0,0,277.31,114a17.22,17.22,0,0,0,8.12-8.56q2.74-5.94,2.75-15.85t-2.78-15.8a17.29,17.29,0,0,0-8.18-8.52,30.24,30.24,0,0,0-13.29-2.62H253.35Z"/><path class="cls-6" d="M344,136.74a28.94,28.94,0,0,1-11.68-2.22,17.85,17.85,0,0,1-8-6.72,20.33,20.33,0,0,1-2.94-11.32,21,21,0,0,1,2-9.68,17.18,17.18,0,0,1,5.56-6.41,26.62,26.62,0,0,1,8.15-3.75A54.58,54.58,0,0,1,347,94.92q5.87-.54,9.45-1.14A13.39,13.39,0,0,0,361.64,92a3.73,3.73,0,0,0,1.63-3.25v-.23a6.41,6.41,0,0,0-2.37-5.33,10,10,0,0,0-6.41-1.88,11.81,11.81,0,0,0-7,1.88,8.3,8.3,0,0,0-3.36,5.2l-20.21-.72a23.81,23.81,0,0,1,4.64-11.23,25.07,25.07,0,0,1,10.31-7.8,39.52,39.52,0,0,1,15.8-2.84,45.18,45.18,0,0,1,12.14,1.54,30.88,30.88,0,0,1,9.69,4.48,20,20,0,0,1,8.65,16.93v46.8H364.53V126H364a19.71,19.71,0,0,1-4.68,5.92,19.2,19.2,0,0,1-6.68,3.63A28.52,28.52,0,0,1,344,136.74Zm6.77-14.34a13.9,13.9,0,0,0,6.38-1.44,11.68,11.68,0,0,0,4.55-4,10.31,10.31,0,0,0,1.71-5.9v-6.54a13.44,13.44,0,0,1-2.27.89c-.88.27-1.84.53-2.89.76s-2.12.45-3.23.63-2.16.35-3.18.49a19.29,19.29,0,0,0-5.26,1.53,8.25,8.25,0,0,0-3.32,2.67,6.59,6.59,0,0,0-1.14,3.87,6,6,0,0,0,2.44,5.2A10.2,10.2,0,0,0,350.77,122.4Z"/><path class="cls-6" d="M421.69,96.31v39.27H399.77V66.72h20.84V79.36h.76a19.54,19.54,0,0,1,7.8-9.93,23.52,23.52,0,0,1,13.14-3.6,23.85,23.85,0,0,1,12.62,3.25,22.1,22.1,0,0,1,8.33,9,28.89,28.89,0,0,1,2.94,13.56v43.89H444.28V96q0-5.73-2.89-9a10.46,10.46,0,0,0-8.14-3.23,12,12,0,0,0-6.07,1.5,10.13,10.13,0,0,0-4,4.28A15.16,15.16,0,0,0,421.69,96.31Z"/><path class="cls-6" d="M492.12,58.7a11.31,11.31,0,0,1-8-3.07,9.9,9.9,0,0,1,0-14.79,11.79,11.79,0,0,1,15.89,0,10,10,0,0,1,0,14.79A11.2,11.2,0,0,1,492.12,58.7Zm-11,76.88V66.72H503v68.86Z"/><path class="cls-6" d="M540.09,43.77v91.81H518.17V43.77Z"/><path class="cls-6" d="M587.38,136.88q-10.85,0-18.62-4.46a30.22,30.22,0,0,1-12-12.47,39.37,39.37,0,0,1-4.19-18.58,39.48,39.48,0,0,1,4.19-18.62,30.14,30.14,0,0,1,12-12.46q7.77-4.47,18.62-4.46T606,70.29a30.26,30.26,0,0,1,12,12.46,39.6,39.6,0,0,1,4.19,18.62A39.49,39.49,0,0,1,618,120a30.35,30.35,0,0,1-12,12.47Q598.23,136.88,587.38,136.88Zm.14-16.55a9.7,9.7,0,0,0,6.68-2.42,15.27,15.27,0,0,0,4.19-6.72,31.08,31.08,0,0,0,1.45-10,31.36,31.36,0,0,0-1.45-10,15.37,15.37,0,0,0-4.19-6.73,9.75,9.75,0,0,0-6.68-2.42,10.16,10.16,0,0,0-6.88,2.42,15,15,0,0,0-4.26,6.73,31.34,31.34,0,0,0-1.46,10,31.07,31.07,0,0,0,1.46,10,14.93,14.93,0,0,0,4.26,6.72A10.11,10.11,0,0,0,587.52,120.33Z"/><path d="M235.5,526.63V502.17h13.66v43h-13v-8h-.44a12.51,12.51,0,0,1-4.86,6.26,14.49,14.49,0,0,1-8.28,2.31,14.67,14.67,0,0,1-7.73-2,13.75,13.75,0,0,1-5.18-5.65,18.75,18.75,0,0,1-1.88-8.5V502.17h13.7v24.74a8,8,0,0,0,1.85,5.51,6.31,6.31,0,0,0,5,2,7.45,7.45,0,0,0,3.69-.91,6.6,6.6,0,0,0,2.6-2.66A8.6,8.6,0,0,0,235.5,526.63Z"/><path d="M258.66,545.19v-43h13v7.9h.47a12.31,12.31,0,0,1,4.54-6.19,13.93,13.93,0,0,1,15.29,0,10,10,0,0,1,4.06,6.16h.45a11.18,11.18,0,0,1,4.71-6.14,14.55,14.55,0,0,1,8.26-2.32,13.24,13.24,0,0,1,9.91,3.91q3.81,3.92,3.81,10.71v29H309.5V519.37a6.71,6.71,0,0,0-1.66-4.91,5.72,5.72,0,0,0-4.28-1.7,5.57,5.57,0,0,0-4.44,1.84,7.19,7.19,0,0,0-1.61,4.91v25.68H284.35v-26a6.62,6.62,0,0,0-1.63-4.73,5.58,5.58,0,0,0-4.28-1.74,5.88,5.88,0,0,0-3.17.86,5.75,5.75,0,0,0-2.14,2.42,8.34,8.34,0,0,0-.77,3.7v25.45Z"/><path d="M374.71,502.17v10.09H347V502.17Zm-21.91,43V500a16.57,16.57,0,0,1,1.88-8.28,12,12,0,0,1,5.21-4.93,17.27,17.27,0,0,1,7.7-1.63,31.82,31.82,0,0,1,5.39.43c1.69.29,2.95.55,3.77.77l-2.18,10a11.24,11.24,0,0,0-1.84-.42,13.44,13.44,0,0,0-2-.17c-1.6,0-2.71.35-3.3,1.06a4.38,4.38,0,0,0-.9,2.92v45.42Z"/><path d="M409.86,526.63V502.17h13.67v43h-13v-8H410a12.41,12.41,0,0,1-4.86,6.26,14.49,14.49,0,0,1-8.28,2.31,14.67,14.67,0,0,1-7.73-2,13.75,13.75,0,0,1-5.18-5.65,18.75,18.75,0,0,1-1.88-8.5V502.17h13.7v24.74a8,8,0,0,0,1.85,5.51,6.31,6.31,0,0,0,5,2,7.41,7.41,0,0,0,3.68-.91,6.6,6.6,0,0,0,2.6-2.66A8.6,8.6,0,0,0,409.86,526.63Z"/><path d="M457.31,502.17v10.09H430.17V502.17Zm-21.46-10.3h13.7v39.8a4.38,4.38,0,0,0,.41,2,2.3,2.3,0,0,0,1.19,1.09,5,5,0,0,0,1.87.32,10,10,0,0,0,1.67-.15c.59-.11,1-.19,1.33-.27l2.07,9.89c-.65.18-1.57.42-2.76.7a22.85,22.85,0,0,1-4.24.53,20,20,0,0,1-8.25-1.13,10.58,10.58,0,0,1-5.24-4.25,13.2,13.2,0,0,1-1.75-7.25Z"/><path d="M492.85,526.63V502.17h13.67v43h-13v-8H493a12.41,12.41,0,0,1-4.86,6.26,14.46,14.46,0,0,1-8.27,2.31,14.65,14.65,0,0,1-7.73-2,13.77,13.77,0,0,1-5.19-5.65,18.75,18.75,0,0,1-1.87-8.5V502.17h13.69v24.74a8,8,0,0,0,1.85,5.51,6.33,6.33,0,0,0,5,2,7.41,7.41,0,0,0,3.68-.91,6.68,6.68,0,0,0,2.61-2.66A8.71,8.71,0,0,0,492.85,526.63Z"/><path d="M516,545.19v-43h13.3V510h.45a11.73,11.73,0,0,1,3.84-6.35,9.72,9.72,0,0,1,6.19-2.08,16.61,16.61,0,0,1,2,.12,12.35,12.35,0,0,1,1.87.38V514a13.18,13.18,0,0,0-2.56-.53,23.08,23.08,0,0,0-2.81-.19,9,9,0,0,0-4.39,1.07,7.92,7.92,0,0,0-3,3,8.83,8.83,0,0,0-1.1,4.5v23.35Z"/><path d="M567.86,546a23,23,0,0,1-11.63-2.79,18.91,18.91,0,0,1-7.48-7.79,27.08,27.08,0,0,1,0-23.24,18.91,18.91,0,0,1,7.48-7.79,25.66,25.66,0,0,1,23.27,0,18.91,18.91,0,0,1,7.48,7.79,27.08,27.08,0,0,1,0,23.24,18.91,18.91,0,0,1-7.48,7.79A23,23,0,0,1,567.86,546Zm.09-10.34a6.06,6.06,0,0,0,4.17-1.51,9.6,9.6,0,0,0,2.62-4.2,21.88,21.88,0,0,0,0-12.49,9.49,9.49,0,0,0-2.62-4.2,6.07,6.07,0,0,0-4.17-1.52,6.35,6.35,0,0,0-4.3,1.52,9.28,9.28,0,0,0-2.66,4.2A21.88,21.88,0,0,0,561,530a9.39,9.39,0,0,0,2.66,4.2A6.34,6.34,0,0,0,568,535.67Z"/><path d="M131.14,640.45a15.89,15.89,0,0,1-8.66-2.46,17.14,17.14,0,0,1-6.22-7.4,28.59,28.59,0,0,1-2.32-12.24q0-7.59,2.41-12.49a16.83,16.83,0,0,1,6.31-7.25,16,16,0,0,1,8.42-2.35,13.19,13.19,0,0,1,5.8,1.16,12.06,12.06,0,0,1,4,3,14.1,14.1,0,0,1,2.38,3.78h.29v-21.7h13.69v57.36H143.65v-7h-.42a13.33,13.33,0,0,1-2.46,3.73,11.79,11.79,0,0,1-4,2.8A13.81,13.81,0,0,1,131.14,640.45Zm4.76-10.67a6.58,6.58,0,0,0,4.25-1.41,9,9,0,0,0,2.72-4,17.35,17.35,0,0,0,.95-6,17.75,17.75,0,0,0-.93-6.08,8.56,8.56,0,0,0-2.72-3.92,7.35,7.35,0,0,0-8.59,0,8.63,8.63,0,0,0-2.67,3.94,17.88,17.88,0,0,0-.91,6,18.11,18.11,0,0,0,.92,6,8.89,8.89,0,0,0,2.68,4A6.62,6.62,0,0,0,135.9,629.78Z"/><path d="M186.79,640.65A23.83,23.83,0,0,1,175.15,638a18.12,18.12,0,0,1-7.5-7.64A25,25,0,0,1,165,618.49a24.73,24.73,0,0,1,2.63-11.66,19.21,19.21,0,0,1,7.42-7.79,22.16,22.16,0,0,1,11.29-2.78,23.59,23.59,0,0,1,8.4,1.43,18,18,0,0,1,6.58,4.22,19.34,19.34,0,0,1,4.32,6.91,26.76,26.76,0,0,1,1.54,9.39v3.42H169.82v-8h24.64a7.77,7.77,0,0,0-1-3.9,7.16,7.16,0,0,0-2.76-2.67,8.78,8.78,0,0,0-8.14.06,7.75,7.75,0,0,0-4,6.73V622a9.75,9.75,0,0,0,1,4.6,7.44,7.44,0,0,0,2.94,3.07,9,9,0,0,0,4.54,1.09,10.41,10.41,0,0,0,3.31-.5,6.91,6.91,0,0,0,2.54-1.49,6,6,0,0,0,1.6-2.41l12.58.37a15.63,15.63,0,0,1-3.43,7.35,17.47,17.47,0,0,1-6.94,4.85A26.58,26.58,0,0,1,186.79,640.65Z"/><path d="M252.58,610l-12.57.34a4.77,4.77,0,0,0-1.07-2.4,5.86,5.86,0,0,0-2.25-1.65,8,8,0,0,0-3.21-.6,8.08,8.08,0,0,0-4,1,2.82,2.82,0,0,0-1.64,2.58,2.71,2.71,0,0,0,1,2.18,8.54,8.54,0,0,0,3.77,1.49l8.29,1.57q6.44,1.23,9.59,4.08a9.83,9.83,0,0,1,3.18,7.57,12.18,12.18,0,0,1-2.62,7.7,16.83,16.83,0,0,1-7.07,5.08,27.16,27.16,0,0,1-10.25,1.81q-9.22,0-14.52-3.8a14.08,14.08,0,0,1-6.07-10.18l13.53-.33a5.28,5.28,0,0,0,2.32,3.58,8.58,8.58,0,0,0,4.79,1.23,8.26,8.26,0,0,0,4.29-1,3,3,0,0,0,1.68-2.6,2.81,2.81,0,0,0-1.29-2.34,10.49,10.49,0,0,0-3.95-1.39L227,622.42q-6.47-1.18-9.63-4.36a10.91,10.91,0,0,1-3.14-8.11,11.74,11.74,0,0,1,2.3-7.38,14.47,14.47,0,0,1,6.61-4.69,28.59,28.59,0,0,1,10.11-1.62q8.75,0,13.78,3.65A13.16,13.16,0,0,1,252.58,610Z"/><path d="M281.27,640.65A23.83,23.83,0,0,1,269.63,638a18.2,18.2,0,0,1-7.51-7.64,25.17,25.17,0,0,1-2.61-11.84,24.61,24.61,0,0,1,2.63-11.66,19.14,19.14,0,0,1,7.42-7.79,22.13,22.13,0,0,1,11.29-2.78,23.59,23.59,0,0,1,8.4,1.43,18.1,18.1,0,0,1,6.58,4.22,19.19,19.19,0,0,1,4.31,6.91,26.53,26.53,0,0,1,1.54,9.39v3.42H264.29v-8h24.65a7.67,7.67,0,0,0-1-3.9,7.2,7.2,0,0,0-2.75-2.67,8.78,8.78,0,0,0-8.14.06,7.66,7.66,0,0,0-2.88,2.77,7.81,7.81,0,0,0-1.12,4V622a9.75,9.75,0,0,0,1,4.6,7.44,7.44,0,0,0,2.94,3.07,9,9,0,0,0,4.54,1.09,10.39,10.39,0,0,0,3.3-.5,7,7,0,0,0,2.55-1.49,6.11,6.11,0,0,0,1.6-2.41l12.57.37a15.44,15.44,0,0,1-3.43,7.35,17.37,17.37,0,0,1-6.93,4.85A26.61,26.61,0,0,1,281.27,640.65Z"/><path d="M323.2,615.3v24.54H309.5v-43h13v7.89H323a12.12,12.12,0,0,1,4.88-6.2,14.64,14.64,0,0,1,8.2-2.25,14.88,14.88,0,0,1,7.89,2,14,14,0,0,1,5.21,5.65,18.11,18.11,0,0,1,1.83,8.48v27.42h-13.7V615.11a8,8,0,0,0-1.8-5.61,6.55,6.55,0,0,0-5.09-2,7.45,7.45,0,0,0-3.79.94,6.26,6.26,0,0,0-2.52,2.67A9.44,9.44,0,0,0,323.2,615.3Z"/><path d="M400.48,596.82l-14.76,43H370l-14.73-43h14.42l7.93,29.63h.45l7.95-29.63Z"/><path d="M425.18,640.65a22.94,22.94,0,0,1-11.63-2.79,18.88,18.88,0,0,1-7.48-7.78,27.1,27.1,0,0,1,0-23.25,18.91,18.91,0,0,1,7.48-7.79,25.74,25.74,0,0,1,23.27,0,19,19,0,0,1,7.48,7.79,27.1,27.1,0,0,1,0,23.25,18.94,18.94,0,0,1-7.48,7.78A23,23,0,0,1,425.18,640.65Zm.09-10.34a6.06,6.06,0,0,0,4.17-1.51,9.6,9.6,0,0,0,2.62-4.2,21.88,21.88,0,0,0,0-12.49,9.6,9.6,0,0,0-2.62-4.2,6.06,6.06,0,0,0-4.17-1.51,6.32,6.32,0,0,0-4.3,1.51,9.31,9.31,0,0,0-2.66,4.2,21.88,21.88,0,0,0,0,12.49,9.31,9.31,0,0,0,2.66,4.2A6.32,6.32,0,0,0,425.27,630.31Z"/><path d="M468.43,582.48v57.36h-13.7V582.48Z"/><path d="M519.63,596.82l-14.76,43H489.19l-14.74-43h14.43l7.92,29.63h.45l8-29.63Z"/><path d="M544.36,640.65A23.79,23.79,0,0,1,532.73,638a18.2,18.2,0,0,1-7.51-7.64,25.17,25.17,0,0,1-2.62-11.84,24.61,24.61,0,0,1,2.64-11.66,19.14,19.14,0,0,1,7.42-7.79,22.09,22.09,0,0,1,11.28-2.78,23.6,23.6,0,0,1,8.41,1.43,18.1,18.1,0,0,1,6.58,4.22,19.32,19.32,0,0,1,4.31,6.91,26.53,26.53,0,0,1,1.54,9.39v3.42H527.39v-8H552a7.67,7.67,0,0,0-1-3.9,7.16,7.16,0,0,0-2.76-2.67,8.76,8.76,0,0,0-8.13.06,7.69,7.69,0,0,0-2.89,2.77,7.91,7.91,0,0,0-1.12,4V622a9.75,9.75,0,0,0,1,4.6,7.44,7.44,0,0,0,2.94,3.07,9,9,0,0,0,4.54,1.09,10.39,10.39,0,0,0,3.3-.5,7,7,0,0,0,2.55-1.49,6.11,6.11,0,0,0,1.6-2.41l12.57.37a15.44,15.44,0,0,1-3.43,7.35,17.37,17.37,0,0,1-6.93,4.85A26.63,26.63,0,0,1,544.36,640.65Z"/><path d="M588.31,640.45a15.85,15.85,0,0,1-8.65-2.46,17.07,17.07,0,0,1-6.22-7.4,28.59,28.59,0,0,1-2.32-12.24q0-7.59,2.4-12.49a16.92,16.92,0,0,1,6.32-7.25,16,16,0,0,1,8.42-2.35,13.11,13.11,0,0,1,5.79,1.16,12.1,12.1,0,0,1,4,3,14.1,14.1,0,0,1,2.38,3.78h.28v-21.7h13.7v57.36H600.83v-7h-.42a13.55,13.55,0,0,1-2.46,3.73,12,12,0,0,1-4,2.8A13.83,13.83,0,0,1,588.31,640.45Zm4.76-10.67a6.61,6.61,0,0,0,4.26-1.41,9,9,0,0,0,2.72-4,19.93,19.93,0,0,0,0-12.13,8.47,8.47,0,0,0-2.71-3.92,6.77,6.77,0,0,0-4.28-1.37,6.68,6.68,0,0,0-4.31,1.4,8.48,8.48,0,0,0-2.67,3.94,20.39,20.39,0,0,0,0,12.08,9,9,0,0,0,2.67,4A6.64,6.64,0,0,0,593.07,629.78Z"/><path d="M643.94,640.65a23,23,0,0,1-11.64-2.79,18.94,18.94,0,0,1-7.48-7.78,27.19,27.19,0,0,1,0-23.25A19,19,0,0,1,632.3,599a25.76,25.76,0,0,1,23.28,0,18.88,18.88,0,0,1,7.47,7.79,27.1,27.1,0,0,1,0,23.25,18.86,18.86,0,0,1-7.47,7.78A23,23,0,0,1,643.94,640.65Zm.08-10.34a6.07,6.07,0,0,0,4.18-1.51,9.5,9.5,0,0,0,2.61-4.2,21.66,21.66,0,0,0,0-12.49,9.5,9.5,0,0,0-2.61-4.2A6.07,6.07,0,0,0,644,606.4a6.34,6.34,0,0,0-4.3,1.51,9.48,9.48,0,0,0-2.66,4.2,21.88,21.88,0,0,0,0,12.49,9.48,9.48,0,0,0,2.66,4.2A6.34,6.34,0,0,0,644,630.31Z"/><path d="M673.49,639.84v-43h13.3v7.84h.45a11.83,11.83,0,0,1,3.84-6.35,9.74,9.74,0,0,1,6.19-2.08,16.61,16.61,0,0,1,2,.12,12.75,12.75,0,0,1,1.88.38v11.91a12.65,12.65,0,0,0-2.57-.54,23.08,23.08,0,0,0-2.81-.19,8.83,8.83,0,0,0-4.38,1.08,7.85,7.85,0,0,0-3.06,3,8.93,8.93,0,0,0-1.1,4.5v23.36Z"/><path d="M244.25,691.46v10.08H216.58V691.46Zm-21.9,43v-45.2a16.52,16.52,0,0,1,1.88-8.28,11.87,11.87,0,0,1,5.21-4.93,17.24,17.24,0,0,1,7.7-1.64,31.88,31.88,0,0,1,5.39.44c1.69.28,2.94.54,3.77.76l-2.19,10a11.1,11.1,0,0,0-1.83-.42,13.55,13.55,0,0,0-2-.17c-1.61,0-2.71.36-3.31,1.07a4.37,4.37,0,0,0-.9,2.91v45.43Z"/><path d="M251.65,734.48v-43H265v7.84h.45a11.7,11.7,0,0,1,3.84-6.34,9.73,9.73,0,0,1,6.19-2.09,14.77,14.77,0,0,1,2,.13,11.24,11.24,0,0,1,1.87.38v11.9a12.47,12.47,0,0,0-2.56-.53,23.27,23.27,0,0,0-2.81-.2,8.9,8.9,0,0,0-4.39,1.08,7.92,7.92,0,0,0-3.05,3,8.77,8.77,0,0,0-1.1,4.49v23.36Z"/><path d="M303.49,735.29a23,23,0,0,1-11.63-2.79,18.88,18.88,0,0,1-7.48-7.78,27.1,27.1,0,0,1,0-23.25,18.88,18.88,0,0,1,7.48-7.78,25.66,25.66,0,0,1,23.27,0,18.88,18.88,0,0,1,7.48,7.78,27.1,27.1,0,0,1,0,23.25,18.88,18.88,0,0,1-7.48,7.78A23,23,0,0,1,303.49,735.29Zm.09-10.33a6.07,6.07,0,0,0,4.17-1.52,9.49,9.49,0,0,0,2.62-4.2,19.25,19.25,0,0,0,.91-6.21,19.48,19.48,0,0,0-.91-6.28,9.6,9.6,0,0,0-2.62-4.2,6.06,6.06,0,0,0-4.17-1.51,6.34,6.34,0,0,0-4.3,1.51,9.39,9.39,0,0,0-2.66,4.2,19.48,19.48,0,0,0-.91,6.28,19.25,19.25,0,0,0,.91,6.21,9.28,9.28,0,0,0,2.66,4.2A6.35,6.35,0,0,0,303.58,725Z"/><path d="M346.74,709.94v24.54H333.05v-43h13v7.9h.48a12.13,12.13,0,0,1,4.87-6.21,14.68,14.68,0,0,1,8.21-2.25,14.93,14.93,0,0,1,7.88,2,13.85,13.85,0,0,1,5.21,5.66,18.07,18.07,0,0,1,1.83,8.47v27.42H360.86V709.75a7.92,7.92,0,0,0-1.81-5.6,6.5,6.5,0,0,0-5.08-2,7.49,7.49,0,0,0-3.8.94,6.31,6.31,0,0,0-2.52,2.67A9.44,9.44,0,0,0,346.74,709.94Z"/><path d="M408.14,691.46v10.08H381V691.46Zm-21.45-10.31h13.69V721a4.35,4.35,0,0,0,.41,2,2.22,2.22,0,0,0,1.19,1.09,4.81,4.81,0,0,0,1.87.33,10,10,0,0,0,1.67-.16c.59-.1,1-.19,1.33-.26l2.07,9.88c-.65.19-1.57.42-2.76.7a22.85,22.85,0,0,1-4.24.53,19.8,19.8,0,0,1-8.25-1.13,10.59,10.59,0,0,1-5.23-4.24,13.06,13.06,0,0,1-1.75-7.26Z"/><path d="M442.26,706v10.55H415.7V706Z"/><path d="M472.82,735.29a23.94,23.94,0,0,1-11.64-2.67,18.28,18.28,0,0,1-7.51-7.65,25.13,25.13,0,0,1-2.62-11.83,24.62,24.62,0,0,1,2.64-11.67,19.06,19.06,0,0,1,7.42-7.78,22,22,0,0,1,11.29-2.79,23.81,23.81,0,0,1,8.4,1.43,18,18,0,0,1,6.58,4.23,19.14,19.14,0,0,1,4.31,6.9,26.59,26.59,0,0,1,1.54,9.4v3.41H455.84v-7.95h24.65a7.63,7.63,0,0,0-1-3.89,7.18,7.18,0,0,0-2.76-2.68,8.84,8.84,0,0,0-8.13.06,7.76,7.76,0,0,0-2.89,2.77,7.91,7.91,0,0,0-1.12,4v8.1a9.82,9.82,0,0,0,1,4.61,7.47,7.47,0,0,0,2.94,3.06,9,9,0,0,0,4.54,1.09,10.12,10.12,0,0,0,3.3-.5,7.16,7.16,0,0,0,2.55-1.48,6.26,6.26,0,0,0,1.6-2.41l12.57.36a15.44,15.44,0,0,1-3.43,7.35,17.27,17.27,0,0,1-6.93,4.85A26.41,26.41,0,0,1,472.82,735.29Z"/><path d="M514.75,709.94v24.54h-13.7v-43h13v7.9h.48a12.18,12.18,0,0,1,4.87-6.21,14.7,14.7,0,0,1,8.21-2.25,14.91,14.91,0,0,1,7.88,2,13.78,13.78,0,0,1,5.21,5.66,18,18,0,0,1,1.84,8.47v27.42h-13.7V709.75a7.92,7.92,0,0,0-1.8-5.6,6.53,6.53,0,0,0-5.09-2,7.43,7.43,0,0,0-3.79.94,6.31,6.31,0,0,0-2.52,2.67A9.44,9.44,0,0,0,514.75,709.94Z"/><path d="M567.57,735.09a15.85,15.85,0,0,1-8.65-2.46,17,17,0,0,1-6.22-7.39A28.65,28.65,0,0,1,550.38,713q0-7.59,2.41-12.49a16.81,16.81,0,0,1,6.31-7.26,16,16,0,0,1,8.42-2.35,13.25,13.25,0,0,1,5.79,1.16,12.13,12.13,0,0,1,4,3,14,14,0,0,1,2.38,3.79H580V677.12h13.7v57.36H580.09v-7h-.42a13.55,13.55,0,0,1-2.46,3.73,12,12,0,0,1-4,2.8A13.83,13.83,0,0,1,567.57,735.09Zm4.76-10.67a6.59,6.59,0,0,0,4.26-1.41,8.92,8.92,0,0,0,2.72-4,19.93,19.93,0,0,0,0-12.13,8.52,8.52,0,0,0-2.71-3.92,6.83,6.83,0,0,0-4.28-1.37A6.7,6.7,0,0,0,568,703a8.54,8.54,0,0,0-2.67,4,20.36,20.36,0,0,0,0,12.07,8.78,8.78,0,0,0,2.68,4A6.61,6.61,0,0,0,572.33,724.42Z"/></svg>