<svg id="Camada_1" data-name="Camada 1" xmlns="http://www.w3.org/2000/svg" viewBox="0 0 935 350"><defs><style>.cls-1{fill:none;stroke:#000;stroke-miterlimit:10;stroke-width:20px;}.cls-2{isolation:isolate;}.cls-3{fill:#e1ff1b;}.cls-4{fill:#1a1a1a;}</style></defs><rect class="cls-1" x="125" y="10" width="800" height="230"/><g class="cls-2"><rect class="cls-3" x="125" y="10" width="800"/><rect class="cls-3" x="125" y="10" width="800" height="229.99"/></g><rect class="cls-1" x="102" y="30" width="800" height="230"/><g class="cls-2"><rect class="cls-3" x="102" y="30" width="800"/><rect class="cls-3" x="102" y="30" width="800" height="229.99"/></g><rect class="cls-1" x="79" y="50" width="800" height="230"/><g class="cls-2"><rect class="cls-3" x="79" y="50" width="800"/><rect class="cls-3" x="79" y="50" width="800" height="229.99"/></g><rect class="cls-1" x="56" y="70" width="800" height="230"/><g class="cls-2"><rect class="cls-3" x="56" y="70" width="800"/><rect class="cls-3" x="56" y="70" width="800" height="229.99"/></g><rect class="cls-1" x="33" y="90" width="800" height="230"/><g class="cls-2"><rect class="cls-3" x="33" y="90" width="800"/><rect class="cls-3" x="33" y="90" width="800" height="229.99"/></g><rect class="cls-1" x="10" y="110" width="800" height="230"/><g class="cls-2"><rect class="cls-3" x="10" y="110" width="800"/><rect class="cls-3" x="10" y="110" width="800" height="229.99"/></g><g id="projetos"><path class="cls-4" d="M70.83,307.17V184.39H99v15.29h.87a30.65,30.65,0,0,1,5-7.85,24.68,24.68,0,0,1,8.26-6.19,27.63,27.63,0,0,1,12.06-2.41,33.14,33.14,0,0,1,17.41,4.88q8.11,4.88,13.11,15.06t5,25.92q0,15.18-4.8,25.41T143,269.84A33,33,0,0,1,125,275a28.47,28.47,0,0,1-11.68-2.21,25.07,25.07,0,0,1-8.29-5.81,27.72,27.72,0,0,1-5.14-7.73h-.58v48ZM98.68,229a36.62,36.62,0,0,0,1.95,12.56,18.18,18.18,0,0,0,5.63,8.29,14.92,14.92,0,0,0,17.76,0,18,18,0,0,0,5.56-8.29A38,38,0,0,0,131.46,229a37.39,37.39,0,0,0-1.88-12.49,17.92,17.92,0,0,0-5.53-8.2,13.8,13.8,0,0,0-8.92-2.91,14.07,14.07,0,0,0-8.9,2.85,17.69,17.69,0,0,0-5.6,8.14A36.52,36.52,0,0,0,98.68,229Z"/><path class="cls-4" d="M177.22,273.68V184.39h27.62v16.28h.93q2.43-8.85,8-13.17a20.22,20.22,0,0,1,12.85-4.33,31.79,31.79,0,0,1,4.07.26,24.56,24.56,0,0,1,3.89.78v24.71a27.37,27.37,0,0,0-5.32-1.1,46.36,46.36,0,0,0-5.84-.41,18.51,18.51,0,0,0-9.1,2.24,16.24,16.24,0,0,0-6.33,6.22,18.34,18.34,0,0,0-2.3,9.33v48.48Z"/><path class="cls-4" d="M284.84,275.37q-14.07,0-24.16-5.79a39.24,39.24,0,0,1-15.52-16.16q-5.43-10.38-5.43-24.09t5.43-24.16A39.3,39.3,0,0,1,260.68,189q10.1-5.79,24.16-5.78T309,189a39.26,39.26,0,0,1,15.53,16.16Q330,215.55,330,229.33t-5.43,24.09A39.2,39.2,0,0,1,309,269.58Q298.91,275.37,284.84,275.37Zm.17-21.45a12.65,12.65,0,0,0,8.67-3.14,19.92,19.92,0,0,0,5.43-8.72,45.41,45.41,0,0,0,0-25.93,19.86,19.86,0,0,0-5.43-8.72,12.65,12.65,0,0,0-8.67-3.14,13.19,13.19,0,0,0-8.92,3.14,19.46,19.46,0,0,0-5.52,8.72,45.41,45.41,0,0,0,0,25.93,19.52,19.52,0,0,0,5.52,8.72A13.19,13.19,0,0,0,285,253.92Z"/><path class="cls-4" d="M346.18,184.39h28.43v93q0,11-4.51,17.56a24.86,24.86,0,0,1-12.7,9.36A59.08,59.08,0,0,1,338,307.17q-1.52,0-2.85-.06l-2.91-.12V285.42q1.05.12,1.86.18c.55,0,1.09.06,1.63.06q5.88,0,8.14-2.18t2.27-6.66ZM360.42,174a14.72,14.72,0,0,1-10.35-4,12.84,12.84,0,0,1,0-19.18,15.3,15.3,0,0,1,20.61,0,12.9,12.9,0,0,1,0,19.18A14.54,14.54,0,0,1,360.42,174Z"/><path class="cls-4" d="M436,275.37q-14,0-24.15-5.55a37.76,37.76,0,0,1-15.58-15.88q-5.44-10.31-5.44-24.56,0-13.83,5.47-24.21A39.65,39.65,0,0,1,411.7,189q9.94-5.79,23.43-5.78a49.22,49.22,0,0,1,17.44,3A37.51,37.51,0,0,1,466.23,195a39.92,39.92,0,0,1,8.95,14.33,55.3,55.3,0,0,1,3.2,19.5v7.09H400.77V219.38h51.16a16.1,16.1,0,0,0-2.15-8.08,15,15,0,0,0-5.73-5.55,18.32,18.32,0,0,0-16.88.12,16.06,16.06,0,0,0-6,5.75,16.34,16.34,0,0,0-2.33,8.23v16.8a20.33,20.33,0,0,0,2.15,9.56,15.44,15.44,0,0,0,6.11,6.37,18.6,18.6,0,0,0,9.41,2.27,21.15,21.15,0,0,0,6.86-1,14.56,14.56,0,0,0,5.29-3.08,12.69,12.69,0,0,0,3.32-5l26.1.75A32.27,32.27,0,0,1,471,261.73a36,36,0,0,1-14.39,10.06A54.77,54.77,0,0,1,436,275.37Z"/><path class="cls-4" d="M545,184.39v20.93H488.68V184.39ZM500.48,163h28.43V245.6a9.09,9.09,0,0,0,.84,4.22,4.77,4.77,0,0,0,2.47,2.26,10.2,10.2,0,0,0,3.9.67,19.62,19.62,0,0,0,3.46-.32c1.22-.21,2.14-.39,2.76-.55l4.3,20.52c-1.36.39-3.27.87-5.73,1.46a48.86,48.86,0,0,1-8.8,1.1q-10,.46-17.12-2.35a21.94,21.94,0,0,1-10.88-8.81q-3.75-6-3.63-15.06Z"/><path class="cls-4" d="M601.93,275.37q-14.07,0-24.15-5.79a39.12,39.12,0,0,1-15.52-16.16q-5.44-10.38-5.44-24.09t5.44-24.16A39.17,39.17,0,0,1,577.78,189q10.08-5.79,24.15-5.78T626.09,189a39.3,39.3,0,0,1,15.52,16.16Q647,215.55,647,229.33t-5.43,24.09a39.24,39.24,0,0,1-15.52,16.16Q616,275.37,601.93,275.37Zm.18-21.45a12.62,12.62,0,0,0,8.66-3.14,19.92,19.92,0,0,0,5.43-8.72,45.41,45.41,0,0,0,0-25.93,19.86,19.86,0,0,0-5.43-8.72,12.62,12.62,0,0,0-8.66-3.14,13.21,13.21,0,0,0-8.93,3.14,19.46,19.46,0,0,0-5.52,8.72,45.41,45.41,0,0,0,0,25.93,19.52,19.52,0,0,0,5.52,8.72A13.21,13.21,0,0,0,602.11,253.92Z"/><path class="cls-4" d="M741.23,211.65l-26.1.7a9.89,9.89,0,0,0-2.21-5,12.29,12.29,0,0,0-4.68-3.43,18.61,18.61,0,0,0-15.06.73c-2.3,1.31-3.44,3.1-3.4,5.34a5.69,5.69,0,0,0,2.12,4.54c1.46,1.28,4.06,2.31,7.82,3.08l17.21,3.26q13.37,2.55,19.91,8.48t6.6,15.7a25.29,25.29,0,0,1-5.44,16,34.83,34.83,0,0,1-14.68,10.55,56.52,56.52,0,0,1-21.27,3.75q-19.14,0-30.15-7.88a29.21,29.21,0,0,1-12.58-21.13l28.08-.7a10.94,10.94,0,0,0,4.82,7.44,17.74,17.74,0,0,0,9.94,2.56,17.35,17.35,0,0,0,8.9-2c2.28-1.36,3.45-3.16,3.48-5.41a5.78,5.78,0,0,0-2.67-4.86c-1.74-1.22-4.48-2.18-8.2-2.87l-15.58-3q-13.43-2.45-20-9t-6.51-16.83a24.33,24.33,0,0,1,4.76-15.32,30.09,30.09,0,0,1,13.72-9.73,59.12,59.12,0,0,1,21-3.37q18.13,0,28.6,7.58A27.36,27.36,0,0,1,741.23,211.65Z"/></g></svg>