<svg id="Camada_1" data-name="Camada 1" xmlns="http://www.w3.org/2000/svg" viewBox="0 0 920 336"><defs><style>.cls-1{fill:none;stroke:#000;stroke-miterlimit:10;stroke-width:20px;}.cls-2{isolation:isolate;}.cls-3{fill:#e1ff1b;}.cls-4{fill:#f26e0c;}.cls-5{fill:#1a1a1a;}</style></defs><rect class="cls-1" x="10" y="14.69" width="800" height="200.91"/><g class="cls-2"><rect class="cls-3" x="10" y="14.69" width="800"/><rect class="cls-4" x="10" y="14.69" width="800" height="200.92"/></g><rect class="cls-1" x="30" y="36.69" width="800" height="200.91"/><g class="cls-2"><rect class="cls-3" x="30" y="36.69" width="800"/><rect class="cls-4" x="30" y="36.69" width="800" height="200.92"/></g><rect class="cls-1" x="50" y="58.69" width="800" height="200.91"/><g class="cls-2"><rect class="cls-3" x="50" y="58.69" width="800"/><rect class="cls-4" x="50" y="58.69" width="800" height="200.92"/></g><rect class="cls-1" x="70" y="80.69" width="800" height="200.91"/><g class="cls-2"><rect class="cls-3" x="70" y="80.69" width="800"/><rect class="cls-4" x="70" y="80.69" width="800" height="200.92"/></g><rect class="cls-1" x="90" y="102.69" width="800" height="200.91"/><g class="cls-2"><rect class="cls-3" x="90" y="102.69" width="800"/><rect class="cls-4" x="90" y="102.69" width="800" height="200.92"/></g><rect class="cls-1" x="110" y="124.69" width="800" height="200.91"/><g class="cls-2"><rect class="cls-3" x="110" y="124.69" width="800"/><rect class="cls-4" x="110" y="124.69" width="800" height="200.92"/></g><path class="cls-5" d="M359.13,216.16l-27.1.63a8.47,8.47,0,0,0-2.3-4.51,12.81,12.81,0,0,0-4.86-3.11,21.8,21.8,0,0,0-15.63.66c-2.4,1.19-3.57,2.81-3.53,4.85a4.91,4.91,0,0,0,2.2,4.11q2.26,1.74,8.12,2.8l17.87,2.95q13.88,2.33,20.67,7.7a17.43,17.43,0,0,1,6.86,14.24,21.17,21.17,0,0,1-5.65,14.5q-5.58,6.16-15.24,9.57a66.32,66.32,0,0,1-22.1,3.4q-19.86,0-31.3-7.14t-13.07-19.17l29.16-.64a9.89,9.89,0,0,0,5,6.75,20.53,20.53,0,0,0,10.32,2.32,20.06,20.06,0,0,0,9.24-1.84q3.56-1.84,3.62-4.91a5.14,5.14,0,0,0-2.77-4.4c-1.82-1.11-4.65-2-8.52-2.61L304,239.62q-13.95-2.2-20.77-8.2a19.22,19.22,0,0,1-6.76-15.26,20.25,20.25,0,0,1,4.95-13.9q5-5.77,14.24-8.83a69.55,69.55,0,0,1,21.8-3.06q18.82,0,29.7,6.88T359.13,216.16Z"/><path class="cls-5" d="M420.05,274q-14.61,0-25.09-5.25A38.16,38.16,0,0,1,378.85,254a45.19,45.19,0,0,1,0-43.76A38.16,38.16,0,0,1,395,195.62q10.49-5.25,25.09-5.25t25.08,5.25a38.19,38.19,0,0,1,16.12,14.66,45.26,45.26,0,0,1,0,43.76,38.19,38.19,0,0,1-16.12,14.66Q434.66,274,420.05,274Zm.18-19.46a14.29,14.29,0,0,0,9-2.84,17.9,17.9,0,0,0,5.65-7.91,36.26,36.26,0,0,0,0-23.52,17.79,17.79,0,0,0-5.65-7.91,14.23,14.23,0,0,0-9-2.85,15,15,0,0,0-9.27,2.85,17.55,17.55,0,0,0-5.73,7.91,36.26,36.26,0,0,0,0,23.52,17.66,17.66,0,0,0,5.73,7.91A15,15,0,0,0,420.23,254.49Z"/><path class="cls-5" d="M482.9,272.42v-108h29.52v40.87h.6a28,28,0,0,1,5.16-7.12,25.83,25.83,0,0,1,8.57-5.61,32.33,32.33,0,0,1,12.53-2.19,38.29,38.29,0,0,1,18.08,4.43A33.46,33.46,0,0,1,571,208.46q5.19,9.22,5.2,23.52,0,13.76-5,23a33.4,33.4,0,0,1-13.41,13.92,38,38,0,0,1-18.68,4.64,33.45,33.45,0,0,1-12.14-2,26.47,26.47,0,0,1-8.6-5.27,25.17,25.17,0,0,1-5.34-7h-.91v13.13Zm28.91-40.5a29.6,29.6,0,0,0,2,11.39,16.69,16.69,0,0,0,5.86,7.52,17.31,17.31,0,0,0,18.44,0,16.39,16.39,0,0,0,5.77-7.52,30.21,30.21,0,0,0,2-11.39,29.74,29.74,0,0,0-2-11.33,16.35,16.35,0,0,0-5.74-7.44,15.73,15.73,0,0,0-9.26-2.64,16.07,16.07,0,0,0-9.24,2.59,16.32,16.32,0,0,0-5.83,7.38A29.51,29.51,0,0,0,511.81,231.92Z"/><path class="cls-5" d="M592.53,272.42v-81h28.68v14.77h1q2.54-8,8.27-11.95a23.08,23.08,0,0,1,13.34-3.92,41.15,41.15,0,0,1,4.23.23,28.89,28.89,0,0,1,4,.72v22.41a31.44,31.44,0,0,0-5.52-1,56.07,56.07,0,0,0-6.07-.37,21.27,21.27,0,0,0-9.44,2,16,16,0,0,0-6.58,5.64,14.93,14.93,0,0,0-2.39,8.46v44Z"/><path class="cls-5" d="M703.49,274q-14.55,0-25.08-5a37,37,0,0,1-16.18-14.4q-5.64-9.36-5.64-22.28a41.7,41.7,0,0,1,5.67-22,38.58,38.58,0,0,1,16-14.66q10.32-5.25,24.33-5.25a58,58,0,0,1,18.11,2.69,40.07,40.07,0,0,1,14.19,8,36.08,36.08,0,0,1,9.29,13,44.33,44.33,0,0,1,3.32,17.69v6.44H666.91v-15H720a13.13,13.13,0,0,0-2.24-7.33,14.84,14.84,0,0,0-5.94-5,21.45,21.45,0,0,0-17.54.11,15.89,15.89,0,0,0-6.22,5.22,13.44,13.44,0,0,0-2.41,7.46v15.24a16.52,16.52,0,0,0,2.23,8.68,15.11,15.11,0,0,0,6.34,5.77,21.58,21.58,0,0,0,9.78,2.06,25.09,25.09,0,0,0,7.12-1,15.9,15.9,0,0,0,5.49-2.8,11.63,11.63,0,0,0,3.45-4.53l27.1.68a27.86,27.86,0,0,1-7.39,13.85,38,38,0,0,1-14.94,9.12A64.54,64.54,0,0,1,703.49,274Z"/></svg>