<svg id="Camada_1" data-name="Camada 1" xmlns="http://www.w3.org/2000/svg" viewBox="0 0 891 336"><defs><style>.cls-1{fill:none;stroke:#000;stroke-miterlimit:10;stroke-width:20px;}.cls-2{isolation:isolate;}.cls-3{fill:#e1ff1b;}.cls-4{fill:#f26e0c;}.cls-5{fill:#1a1a1a;}</style></defs><rect class="cls-1" x="10" y="14.69" width="768" height="192.87"/><g class="cls-2"><rect class="cls-3" x="10" y="14.7" width="768.01"/><rect class="cls-4" x="10" y="14.7" width="768.01" height="192.87"/></g><rect class="cls-1" x="30" y="36.69" width="768" height="192.87"/><g class="cls-2"><rect class="cls-3" x="30" y="36.7" width="768.01"/><rect class="cls-4" x="30" y="36.7" width="768.01" height="192.87"/></g><rect class="cls-1" x="50" y="58.69" width="768" height="192.87"/><g class="cls-2"><rect class="cls-3" x="50" y="58.7" width="768.01"/><rect class="cls-4" x="50" y="58.7" width="768.01" height="192.87"/></g><rect class="cls-1" x="70" y="80.69" width="768" height="192.87"/><g class="cls-2"><rect class="cls-3" x="70" y="80.7" width="768.01"/><rect class="cls-4" x="70" y="80.7" width="768.01" height="192.87"/></g><rect class="cls-1" x="90" y="102.69" width="768" height="192.87"/><g class="cls-2"><rect class="cls-3" x="90" y="102.7" width="768.01"/><rect class="cls-4" x="90" y="102.7" width="768.01" height="192.87"/></g><rect class="cls-1" x="110" y="124.69" width="768" height="192.87"/><g class="cls-2"><rect class="cls-3" x="110" y="124.7" width="768.01"/><rect class="cls-4" x="110" y="124.7" width="768.01" height="192.87"/></g><path class="cls-5" d="M348.35,213.6l-25.77.62a8.33,8.33,0,0,0-2.19-4.4,12.06,12.06,0,0,0-4.62-3,20.39,20.39,0,0,0-14.87.65q-3.4,1.74-3.36,4.73a4.87,4.87,0,0,0,2.1,4q2.16,1.7,7.72,2.73l17,2.88q13.22,2.26,19.67,7.5a17.19,17.19,0,0,1,6.51,13.89,20.91,20.91,0,0,1-5.36,14.14,34.43,34.43,0,0,1-14.5,9.34,61.68,61.68,0,0,1-21,3.32q-18.89,0-29.77-7t-12.43-18.7l27.73-.61a9.66,9.66,0,0,0,4.77,6.58,19.1,19.1,0,0,0,9.81,2.26,18.7,18.7,0,0,0,8.79-1.8q3.38-1.8,3.44-4.78a5.05,5.05,0,0,0-2.64-4.3,23.08,23.08,0,0,0-8.09-2.54l-15.39-2.62q-13.26-2.16-19.75-8a19,19,0,0,1-6.43-14.89,20,20,0,0,1,4.71-13.55q4.77-5.64,13.55-8.62a64.5,64.5,0,0,1,20.72-3q17.91,0,28.25,6.71T348.35,213.6Z"/><path class="cls-5" d="M406.28,270q-13.89,0-23.85-5.12a36.76,36.76,0,0,1-15.33-14.3,45.11,45.11,0,0,1,0-42.69,36.74,36.74,0,0,1,15.33-14.29q10-5.13,23.85-5.12t23.85,5.12a36.74,36.74,0,0,1,15.33,14.29,45.11,45.11,0,0,1,0,42.69,36.76,36.76,0,0,1-15.33,14.3Q420.17,270,406.28,270Zm.17-19a13.37,13.37,0,0,0,8.56-2.78,17.5,17.5,0,0,0,5.37-7.71,36.3,36.3,0,0,0,0-22.94,17.59,17.59,0,0,0-5.37-7.72,13.36,13.36,0,0,0-8.56-2.77,14,14,0,0,0-8.81,2.77,17.18,17.18,0,0,0-5.45,7.72,36.11,36.11,0,0,0,0,22.94,17.09,17.09,0,0,0,5.45,7.71A14,14,0,0,0,406.45,251Z"/><path class="cls-5" d="M466.05,268.47V163.15h28.07V203h.57a27.2,27.2,0,0,1,4.91-6.94,24.52,24.52,0,0,1,8.15-5.48,30.16,30.16,0,0,1,11.92-2.13,35.66,35.66,0,0,1,17.19,4.32,32.28,32.28,0,0,1,12.95,13.32q4.94,9,4.93,22.94,0,13.42-4.73,22.47a32.29,32.29,0,0,1-12.75,13.58,35.45,35.45,0,0,1-17.76,4.53,31,31,0,0,1-11.54-2,25.08,25.08,0,0,1-8.19-5.14,24.61,24.61,0,0,1-5.08-6.84h-.86v12.8ZM493.55,229a29.46,29.46,0,0,0,1.92,11.11,16.2,16.2,0,0,0,5.57,7.32,16.09,16.09,0,0,0,17.54,0,16,16,0,0,0,5.48-7.32A30.31,30.31,0,0,0,525.92,229a29.89,29.89,0,0,0-1.86-11.06,15.85,15.85,0,0,0-5.46-7.25,14.69,14.69,0,0,0-8.81-2.57,15,15,0,0,0-8.78,2.52,15.82,15.82,0,0,0-5.54,7.2A29.34,29.34,0,0,0,493.55,229Z"/><path class="cls-5" d="M570.31,268.47v-79h27.27v14.4h.91q2.41-7.81,7.87-11.65a21.52,21.52,0,0,1,12.69-3.83,34.55,34.55,0,0,1,4,.23,26.71,26.71,0,0,1,3.85.69v21.86a29.64,29.64,0,0,0-5.25-1,53,53,0,0,0-5.77-.36,20,20,0,0,0-9,2,15.38,15.38,0,0,0-6.25,5.51,14.85,14.85,0,0,0-2.27,8.25v42.89Z"/><path class="cls-5" d="M675.83,270Q662,270,652,265.05a35.44,35.44,0,0,1-15.39-14q-5.37-9.12-5.37-21.73a41.49,41.49,0,0,1,5.4-21.42,37.15,37.15,0,0,1,15.21-14.29q9.82-5.13,23.14-5.12a53.77,53.77,0,0,1,17.22,2.62,37.71,37.71,0,0,1,13.49,7.77,35,35,0,0,1,8.84,12.68,44.19,44.19,0,0,1,3.16,17.25v6.28H641V220.44h50.52a13.12,13.12,0,0,0-2.12-7.15,14.12,14.12,0,0,0-5.66-4.91,19.92,19.92,0,0,0-16.68.1,15.24,15.24,0,0,0-5.91,5.09,13.36,13.36,0,0,0-2.3,7.28v14.86a16.36,16.36,0,0,0,2.13,8.46,14.43,14.43,0,0,0,6,5.64,20.19,20.19,0,0,0,9.3,2,23.48,23.48,0,0,0,6.77-.92,14.91,14.91,0,0,0,5.22-2.73,11.22,11.22,0,0,0,3.28-4.42l25.77.67a27.35,27.35,0,0,1-7,13.5,35.93,35.93,0,0,1-14.21,8.89A59.8,59.8,0,0,1,675.83,270Z"/></svg>